name Walk7.mot
datacolumns 19
datarows 22
range 3.46200000 3.48300000
endheader

                time	   L_ground_force_vx	   L_ground_force_vy	   L_ground_force_vz	   L_ground_force_px	   L_ground_force_py	   L_ground_force_pz	   R_ground_force_vx	   R_ground_force_vy	   R_ground_force_vz	   R_ground_force_px	   R_ground_force_py	   R_ground_force_pz	   L_ground_torque_x	   L_ground_torque_y	   L_ground_torque_z	   R_ground_torque_x	   R_ground_torque_y	   R_ground_torque_z	
          3.46200000	          0.05936946	          0.08166060	         -0.01584620	          0.00140615	          0.00000000	          0.00085285	        -11.24879219	        893.57375096	        -77.56634158	          0.23048385	          0.00000000	          0.12502448	          0.00000000	         -0.00128999	          0.00000000	          0.00000000	         10.54447788	          0.00000000	
          3.46300000	          0.06832172	          0.11373018	         -0.01386277	          0.00129819	          0.00000000	          0.00079117	        -10.93465440	        893.23074565	        -77.44894023	          0.23068692	          0.00000000	          0.12501657	          0.00000000	         -0.00114875	          0.00000000	          0.00000000	         10.47574144	          0.00000000	
          3.46400000	          0.07625466	          0.14264331	         -0.01199560	          0.00119451	          0.00000000	          0.00073174	        -10.62268909	        892.87758202	        -77.31929060	          0.23089122	          0.00000000	          0.12500795	          0.00000000	         -0.00101517	          0.00000000	          0.00000000	         10.40663250	          0.00000000	
          3.46500000	          0.08322495	          0.16855911	         -0.01024185	          0.00109514	          0.00000000	          0.00067460	        -10.31280210	        892.51535105	        -77.17785868	          0.23109675	          0.00000000	          0.12499866	          0.00000000	         -0.00088912	          0.00000000	          0.00000000	         10.33716468	          0.00000000	
          3.46600000	          0.08928812	          0.19163449	         -0.00859851	          0.00100007	          0.00000000	          0.00061977	        -10.00489634	        892.14514777	        -77.02513131	          0.23130347	          0.00000000	          0.12498870	          0.00000000	         -0.00077042	          0.00000000	          0.00000000	         10.26735209	          0.00000000	
          3.46700000	          0.09449837	          0.21202377	         -0.00706240	          0.00090931	          0.00000000	          0.00056726	         -9.69887297	        891.76806922	        -76.86161522	          0.23151136	          0.00000000	          0.12497810	          0.00000000	         -0.00065890	          0.00000000	          0.00000000	         10.19720934	          0.00000000	
          3.46800000	          0.09890853	          0.22987828	         -0.00563022	          0.00082282	          0.00000000	          0.00051707	         -9.39463240	        891.38521326	        -76.68783610	          0.23172038	          0.00000000	          0.12496687	          0.00000000	         -0.00055438	          0.00000000	          0.00000000	         10.12675144	          0.00000000	
          3.46900000	          0.10256997	          0.24534606	         -0.00429852	          0.00074058	          0.00000000	          0.00046919	         -9.09207503	        890.99767804	        -76.50433767	          0.23193052	          0.00000000	          0.12495506	          0.00000000	         -0.00045665	          0.00000000	          0.00000000	         10.05599382	          0.00000000	
          3.47000000	          0.10553252	          0.25857161	         -0.00306381	          0.00066254	          0.00000000	          0.00042361	         -8.79110142	        890.60656171	        -76.31168069	          0.23214174	          0.00000000	          0.12494269	          0.00000000	         -0.00036550	          0.00000000	          0.00000000	          9.98495225	          0.00000000	
          3.47100000	          0.10784439	          0.26969558	         -0.00192251	          0.00058863	          0.00000000	          0.00038031	         -8.49161232	        890.21296170	        -76.11044190	          0.23235403	          0.00000000	          0.12492978	          0.00000000	         -0.00028072	          0.00000000	          0.00000000	          9.91364281	          0.00000000	
          3.47200000	          0.10955218	          0.27885463	         -0.00087097	          0.00051878	          0.00000000	          0.00033925	         -8.19350853	        889.81797309	        -75.90121299	          0.23256734	          0.00000000	          0.12491639	          0.00000000	         -0.00020209	          0.00000000	          0.00000000	          9.84208198	          0.00000000	
          3.47300000	          0.11070079	          0.28618121	          0.00009444	          0.00045290	          0.00000000	          0.00030040	         -7.89669104	        889.42268643	        -75.68459942	          0.23278167	          0.00000000	          0.12490254	          0.00000000	         -0.00012937	          0.00000000	          0.00000000	          9.77028669	          0.00000000	
          3.47400000	          0.11133343	          0.29180345	          0.00097742	          0.00039092	          0.00000000	          0.00026371	         -7.60106151	        889.02818505	        -75.46121912	          0.23299698	          0.00000000	          0.12488827	          0.00000000	         -0.00006236	          0.00000000	          0.00000000	          9.69827449	          0.00000000	
          3.47500000	          0.11149158	          0.29584499	          0.00178163	          0.00033273	          0.00000000	          0.00022915	         -7.30652297	        888.63554260	        -75.23170123	          0.23321328	          0.00000000	          0.12487363	          0.00000000	         -0.00000080	          0.00000000	          0.00000000	          9.62606381	          0.00000000	
          3.47600000	          0.11121498	          0.29842499	          0.00251073	          0.00027823	          0.00000000	          0.00019667	         -7.01298064	        888.24582090	        -74.99668477	          0.23343054	          0.00000000	          0.12485866	          0.00000000	          0.00005552	          0.00000000	          0.00000000	          9.55367426	          0.00000000	
          3.47700000	          0.11054164	          0.29965794	          0.00316835	          0.00022731	          0.00000000	          0.00016620	         -6.72034258	        887.86006788	        -74.75681759	          0.23364876	          0.00000000	          0.12484338	          0.00000000	          0.00010685	          0.00000000	          0.00000000	          9.48112690	          0.00000000	
          3.47800000	          0.10950785	          0.29965372	          0.00375809	          0.00017986	          0.00000000	          0.00013769	         -6.42852005	        887.47931522	        -74.51275504	          0.23386792	          0.00000000	          0.12482786	          0.00000000	          0.00015340	          0.00000000	          0.00000000	          9.40844438	          0.00000000	
          3.47900000	          0.10814814	          0.29851754	          0.00428348	          0.00013577	          0.00000000	          0.00011109	         -6.13742771	        887.10457540	        -74.26515832	          0.23408803	          0.00000000	          0.12481212	          0.00000000	          0.00019542	          0.00000000	          0.00000000	          9.33565085	          0.00000000	
          3.48000000	          0.10649538	          0.29634993	          0.00474802	          0.00009491	          0.00000000	          0.00008633	         -5.84698386	        886.73683865	        -74.01469244	          0.23430906	          0.00000000	          0.12479619	          0.00000000	          0.00023313	          0.00000000	          0.00000000	          9.26277169	          0.00000000	
          3.48100000	          0.10458072	          0.29324679	          0.00515511	          0.00005717	          0.00000000	          0.00006335	         -5.55711081	        886.37707005	        -73.76202374	          0.23453102	          0.00000000	          0.12478012	          0.00000000	          0.00026675	          0.00000000	          0.00000000	          9.18983311	          0.00000000	
          3.48200000	          0.10243366	          0.28929937	          0.00550812	          0.00002242	          0.00000000	          0.00004208	         -5.26773532	        886.02620740	        -73.50781753	          0.23475388	          0.00000000	          0.12476393	          0.00000000	          0.00029651	          0.00000000	          0.00000000	          9.11686176	          0.00000000	
          3.48300000	          0.10008209	          0.28459439	          0.00581029	         -0.00000946	          0.00000000	          0.00002246	         -4.97878904	        885.68515982	        -73.25273583	          0.23497763	          0.00000000	          0.12474766	          0.00000000	          0.00032261	          0.00000000	          0.00000000	          9.04388450	          0.00000000	
